<svg width="32" height="32" viewBox="0 0 32 32" fill="none" xmlns="http://www.w3.org/2000/svg">
<g clip-path="url(#clip0_6_10)">
<path fill-rule="evenodd" clip-rule="evenodd" d="M16.8745 4.68162C17.5027 4.05347 18.5211 4.05347 19.1492 4.68162L25.0313 10.5639L19.1225 16.2043C18.4799 16.8176 17.4618 16.794 16.8484 16.1514C16.235 15.5088 16.2587 14.4907 16.9013 13.8773L18.7155 12.1456H14.795C11.6562 12.1456 9.11177 14.69 9.11177 17.8288C9.11177 20.9675 11.6562 23.5119 14.795 23.5119H22.73C23.6182 23.5119 24.3386 24.232 24.3386 25.1205C24.3386 26.0087 23.6182 26.7288 22.73 26.7288H14.795C9.87958 26.7288 5.8949 22.7442 5.8949 17.8288C5.8949 12.9134 9.87958 8.92863 14.795 8.92863H18.8469L16.8745 6.95632C16.2464 6.32818 16.2464 5.30977 16.8745 4.68162Z" fill="#1F8459"/>
</g>
<defs>
<clipPath id="clip0_6_10">
<rect width="32" height="32" fill="white"/>
</clipPath>
</defs>
</svg>
